<svg width="99" height="101" viewBox="0 0 99 101" fill="none" xmlns="http://www.w3.org/2000/svg">
<path fill-rule="evenodd" clip-rule="evenodd" d="M49.5 50.5C58.6163 50.5 66 42.9671 66 33.6667C66 24.3663 58.6163 16.8333 49.5 16.8333C40.3837 16.8333 33 24.3663 33 33.6667C33 42.9671 40.3837 50.5 49.5 50.5ZM70.125 33.6667C70.125 45.2922 60.8953 54.7083 49.5 54.7083C38.1047 54.7083 28.875 45.2922 28.875 33.6667C28.875 22.0411 38.1047 12.625 49.5 12.625C60.8953 12.625 70.125 22.0411 70.125 33.6667ZM19.0224 71.9878C16.9537 73.6921 16.5 74.9694 16.5 75.75V84.1667H82.5V75.75C82.5 74.9715 82.0463 73.69 79.9755 71.9878C77.9543 70.3234 74.9389 68.7368 71.2841 67.3649C63.9788 64.6232 55.1781 63.125 49.5 63.125C43.8219 63.125 35.0212 64.6232 27.7159 67.3649C24.0611 68.7368 21.0457 70.3234 19.0224 71.9878ZM49.5 58.9167C37.1085 58.9167 12.375 65.3028 12.375 75.75V88.375H86.625V75.75C86.625 65.3028 61.8915 58.9167 49.5 58.9167Z" fill="#517298"/>
</svg>
