<svg width="242" height="26" viewBox="0 0 242 26" fill="none" xmlns="http://www.w3.org/2000/svg">
<path d="M0.787109 0.412109H12.1543V3.54688H4.06836V9.34766H6.5C8.82422 9.34766 10.6895 9.9043 12.0957 11.0176C13.502 12.1113 14.2051 13.7812 14.2051 16.0273C14.2051 17.7656 13.7754 19.1523 12.916 20.1875C12.0762 21.2031 11.0117 21.9062 9.72266 22.2969C9.29297 22.3945 8.83398 22.4629 8.3457 22.502C7.85742 22.541 7.4375 22.5605 7.08594 22.5605H0.787109V0.412109ZM4.06836 12.3945V19.4844H6.79297C7.94531 19.4844 8.88281 19.2402 9.60547 18.752C10.3477 18.2637 10.7676 17.3359 10.8652 15.9688C10.8457 15.3242 10.7188 14.7773 10.4844 14.3281C10.25 13.8789 9.95703 13.5176 9.60547 13.2441C9.23438 12.9512 8.81445 12.7363 8.3457 12.5996C7.87695 12.4629 7.4082 12.3945 6.93945 12.3945H4.06836ZM16.0859 22.5605L22.9707 0.412109H26.3691L33.3125 22.5605H29.7676L27.7754 16.1152H21.4473L19.3672 22.5605H16.0859ZM24.6113 5.53906L22.3555 13.0098H26.8086L24.6113 5.53906ZM44.4512 19.4551V0.412109H47.7617V19.4551H52.0977V0.412109H55.4375V22.5605H36.6875V0.412109H39.998V19.4551H44.4512ZM60.834 0.412109H72.2012V3.54688H64.1152V9.34766H66.5469C68.8711 9.34766 70.7363 9.9043 72.1426 11.0176C73.5488 12.1113 74.252 13.7812 74.252 16.0273C74.252 17.7656 73.8223 19.1523 72.9629 20.1875C72.123 21.2031 71.0586 21.9062 69.7695 22.2969C69.3398 22.3945 68.8809 22.4629 68.3926 22.502C67.9043 22.541 67.4844 22.5605 67.1328 22.5605H60.834V0.412109ZM64.1152 12.3945V19.4844H66.8398C67.9922 19.4844 68.9297 19.2402 69.6523 18.752C70.3945 18.2637 70.8145 17.3359 70.9121 15.9688C70.8926 15.3242 70.7656 14.7773 70.5312 14.3281C70.2969 13.8789 70.0039 13.5176 69.6523 13.2441C69.2812 12.9512 68.8613 12.7363 68.3926 12.5996C67.9238 12.4629 67.4551 12.3945 66.9863 12.3945H64.1152ZM85.4199 3.51758V17.4336C85.4199 18 85.3516 18.5957 85.2148 19.2207C85.0781 19.8457 84.8047 20.4414 84.3945 21.0078C83.9648 21.5742 83.3789 22.0332 82.6367 22.3848C81.9141 22.7363 80.9766 22.9121 79.8242 22.9121C79.043 22.9121 78.1055 22.7461 77.0117 22.4141V18.957C77.832 19.2891 78.418 19.5039 78.7695 19.6016C79.1406 19.6992 79.541 19.7578 79.9707 19.7773C80.6934 19.7773 81.2207 19.543 81.5527 19.0742C81.9043 18.6055 82.0801 17.8828 82.0801 16.9062V0.412109H94.7656V22.5605H91.4258V3.51758H85.4199ZM97.2617 22.5605L104.146 0.412109H107.545L114.488 22.5605H110.943L108.951 16.1152H102.623L100.543 22.5605H97.2617ZM105.787 5.53906L103.531 13.0098H107.984L105.787 5.53906ZM117.893 22.5605V0.412109H121.203V9.52344H128.527V0.412109H131.896V22.5605H128.527V12.6289H121.203V22.5605H117.893ZM136.883 22.5605V0.412109H140.164V8.73242L146.727 0.412109H150.682L142.391 10.8418L151.795 22.5605H147.576L140.164 13.3906V22.5605H136.883ZM169.438 0.412109V22.5605H166.186V6.91602L158.891 22.5605H155.17V0.412109H158.422V16.1152L165.717 0.412109H169.438ZM177.002 5.48047H173.838C173.838 4.62109 173.965 3.9082 174.219 3.3418C174.492 2.75586 174.902 2.21875 175.449 1.73047C175.996 1.24219 176.65 0.832031 177.412 0.5C178.193 0.167969 179.131 0.00195312 180.225 0.00195312C181.025 0.00195312 181.816 0.128906 182.598 0.382812C183.398 0.636719 184.082 1.00781 184.648 1.49609C185.293 2.04297 185.781 2.70703 186.113 3.48828C186.465 4.25 186.641 5.10938 186.641 6.06641C186.641 6.82812 186.533 7.51172 186.318 8.11719C186.104 8.70312 185.85 9.23047 185.557 9.69922C185.322 10.0508 185.029 10.3535 184.678 10.6074C184.346 10.8418 184.111 11.0078 183.975 11.1055C184.678 11.2812 185.342 11.7109 185.967 12.3945C186.611 13.0586 186.953 14.3184 186.992 16.1738C186.992 17.0918 186.836 17.9805 186.523 18.8398C186.211 19.6797 185.781 20.4121 185.234 21.0371C184.629 21.6426 183.896 22.1113 183.037 22.4434C182.197 22.7559 181.26 22.9121 180.225 22.9121C179.15 22.9121 178.213 22.7852 177.412 22.5312C176.611 22.2578 175.938 21.877 175.391 21.3887C174.824 20.959 174.375 20.4512 174.043 19.8652C173.73 19.2598 173.516 18.4199 173.398 17.3457H177.002C177.002 17.8926 177.061 18.2832 177.178 18.5176C177.314 18.752 177.51 18.9766 177.764 19.1914C178.037 19.4258 178.369 19.6211 178.76 19.7773C179.15 19.9141 179.6 19.9824 180.107 19.9824C181.182 19.9824 182.021 19.6211 182.627 18.8984C183.252 18.1758 183.564 17.2188 183.564 16.0273C183.564 15.3242 183.457 14.748 183.242 14.2988C183.047 13.8301 182.793 13.459 182.48 13.1855C182.129 12.9121 181.729 12.707 181.279 12.5703C180.85 12.4336 180.439 12.3457 180.049 12.3066H177.529V9.43555H180.049C181.143 9.37695 181.963 9.07422 182.51 8.52734C183.076 7.98047 183.359 7.16992 183.359 6.0957C183.359 5.09961 183.076 4.32812 182.51 3.78125C181.963 3.21484 181.24 2.93164 180.342 2.93164C179.404 2.93164 178.643 3.16602 178.057 3.63477C177.471 4.08398 177.119 4.69922 177.002 5.48047ZM189.605 25.4609V19.4551H191.686C192.369 16.877 192.867 13.9961 193.18 10.8125C193.492 7.62891 193.648 4.16211 193.648 0.412109H205.279V19.4551H207.418V25.4609H204.078V22.5605H192.945V25.4609H189.605ZM195.084 19.4551H201.939V3.51758H196.959C196.92 6.4668 196.725 9.33789 196.373 12.1309C196.021 14.9238 195.592 17.3652 195.084 19.4551ZM209.064 22.5605L215.949 0.412109H219.348L226.291 22.5605H222.746L220.754 16.1152H214.426L212.346 22.5605H209.064ZM217.59 5.53906L215.334 13.0098H219.787L217.59 5.53906ZM233.24 22.5605V3.54688H227.908V0.412109H241.883V3.54688H236.551V22.5605H233.24Z" fill="white"/>
<path d="M0.787109 0.412109V-0.0878906H0.287109V0.412109H0.787109ZM12.1543 0.412109H12.6543V-0.0878906H12.1543V0.412109ZM12.1543 3.54688V4.04688H12.6543V3.54688H12.1543ZM4.06836 3.54688V3.04688H3.56836V3.54688H4.06836ZM4.06836 9.34766H3.56836V9.84766H4.06836V9.34766ZM12.0957 11.0176L11.7853 11.4096L11.7887 11.4123L12.0957 11.0176ZM12.916 20.1875L12.5313 19.8681L12.5307 19.8689L12.916 20.1875ZM9.72266 22.2969L9.83347 22.7844L9.85072 22.7805L9.86766 22.7754L9.72266 22.2969ZM0.787109 22.5605H0.287109V23.0605H0.787109V22.5605ZM4.06836 12.3945V11.8945H3.56836V12.3945H4.06836ZM4.06836 19.4844H3.56836V19.9844H4.06836V19.4844ZM9.60547 18.752L9.33064 18.3342L9.32554 18.3377L9.60547 18.752ZM10.8652 15.9688L11.364 16.0044L11.3658 15.979L11.365 15.9536L10.8652 15.9688ZM9.60547 13.2441L9.29564 13.6366L9.2985 13.6388L9.60547 13.2441ZM0.787109 0.912109H12.1543V-0.0878906H0.787109V0.912109ZM11.6543 0.412109V3.54688H12.6543V0.412109H11.6543ZM12.1543 3.04688H4.06836V4.04688H12.1543V3.04688ZM3.56836 3.54688V9.34766H4.56836V3.54688H3.56836ZM4.06836 9.84766H6.5V8.84766H4.06836V9.84766ZM6.5 9.84766C8.74521 9.84766 10.4906 10.3846 11.7854 11.4096L12.4061 10.6256C10.8883 9.42398 8.90323 8.84766 6.5 8.84766V9.84766ZM11.7887 11.4123C13.0421 12.3871 13.7051 13.8913 13.7051 16.0273H14.7051C14.7051 13.6712 13.9618 11.8356 12.4027 10.6229L11.7887 11.4123ZM13.7051 16.0273C13.7051 17.6836 13.2967 18.9462 12.5313 19.8681L13.3007 20.5069C14.2541 19.3585 14.7051 17.8476 14.7051 16.0273H13.7051ZM12.5307 19.8689C11.7549 20.807 10.7748 21.4556 9.57765 21.8184L9.86766 22.7754C11.2486 22.3569 12.3974 21.5993 13.3013 20.5061L12.5307 19.8689ZM9.61185 21.8093C9.20793 21.9011 8.77284 21.9662 8.30583 22.0035L8.38558 23.0004C8.89513 22.9596 9.37801 22.888 9.83347 22.7844L9.61185 21.8093ZM8.30583 22.0035C7.82609 22.0419 7.42017 22.0605 7.08594 22.0605V23.0605C7.45483 23.0605 7.88875 23.0401 8.38558 23.0004L8.30583 22.0035ZM7.08594 22.0605H0.787109V23.0605H7.08594V22.0605ZM1.28711 22.5605V0.412109H0.287109V22.5605H1.28711ZM3.56836 12.3945V19.4844H4.56836V12.3945H3.56836ZM4.06836 19.9844H6.79297V18.9844H4.06836V19.9844ZM6.79297 19.9844C8.01353 19.9844 9.05731 19.7258 9.8854 19.1662L9.32554 18.3377C8.70832 18.7547 7.8771 18.9844 6.79297 18.9844V19.9844ZM9.88028 19.1697C10.8107 18.5575 11.2614 17.4408 11.364 16.0044L10.3665 15.9331C10.2738 17.2311 9.88459 17.9698 9.33066 18.3342L9.88028 19.1697ZM11.365 15.9536C11.3438 15.2536 11.2051 14.6286 10.9277 14.0968L10.0411 14.5594C10.2324 14.9261 10.3476 15.3948 10.3655 15.9839L11.365 15.9536ZM10.9277 14.0968C10.6647 13.5928 10.3279 13.1726 9.91244 12.8495L9.2985 13.6388C9.58611 13.8625 9.83533 14.1651 10.0411 14.5594L10.9277 14.0968ZM9.91529 12.8517C9.49209 12.5176 9.0141 12.2737 8.4857 12.1196L8.2057 13.0796C8.61481 13.1989 8.97666 13.3848 9.29565 13.6366L9.91529 12.8517ZM8.4857 12.1196C7.97337 11.9702 7.45753 11.8945 6.93945 11.8945V12.8945C7.35888 12.8945 7.78053 12.9556 8.2057 13.0796L8.4857 12.1196ZM6.93945 11.8945H4.06836V12.8945H6.93945V11.8945ZM16.0859 22.5605L15.6085 22.4121L15.4069 23.0605H16.0859V22.5605ZM22.9707 0.412109V-0.0878906H22.6025L22.4932 0.263691L22.9707 0.412109ZM26.3691 0.412109L26.8462 0.262541L26.7364 -0.0878906H26.3691V0.412109ZM33.3125 22.5605V23.0605H33.9932L33.7896 22.411L33.3125 22.5605ZM29.7676 22.5605L29.2899 22.7082L29.3988 23.0605H29.7676V22.5605ZM27.7754 16.1152L28.2531 15.9676L28.1442 15.6152H27.7754V16.1152ZM21.4473 16.1152V15.6152H21.0832L20.9714 15.9617L21.4473 16.1152ZM19.3672 22.5605V23.0605H19.7312L19.843 22.7141L19.3672 22.5605ZM24.6113 5.53906L25.091 5.39798L24.6176 3.78849L24.1327 5.39453L24.6113 5.53906ZM22.3555 13.0098L21.8768 12.8652L21.6822 13.5098H22.3555V13.0098ZM26.8086 13.0098V13.5098H27.4768L27.2883 12.8687L26.8086 13.0098ZM16.5634 22.709L23.4482 0.560528L22.4932 0.263691L15.6085 22.4121L16.5634 22.709ZM22.9707 0.912109H26.3691V-0.0878906H22.9707V0.912109ZM25.892 0.561678L32.8354 22.7101L33.7896 22.411L26.8462 0.262541L25.892 0.561678ZM33.3125 22.0605H29.7676V23.0605H33.3125V22.0605ZM30.2453 22.4129L28.2531 15.9676L27.2977 16.2629L29.2899 22.7082L30.2453 22.4129ZM27.7754 15.6152H21.4473V16.6152H27.7754V15.6152ZM20.9714 15.9617L18.8914 22.407L19.843 22.7141L21.9231 16.2688L20.9714 15.9617ZM19.3672 22.0605H16.0859V23.0605H19.3672V22.0605ZM24.1327 5.39453L21.8768 12.8652L22.8341 13.1543L25.09 5.6836L24.1327 5.39453ZM22.3555 13.5098H26.8086V12.5098H22.3555V13.5098ZM27.2883 12.8687L25.091 5.39798L24.1316 5.68015L26.3289 13.1508L27.2883 12.8687ZM44.4512 19.4551V19.9551H44.9512V19.4551H44.4512ZM44.4512 0.412109V-0.0878906H43.9512V0.412109H44.4512ZM47.7617 0.412109H48.2617V-0.0878906H47.7617V0.412109ZM47.7617 19.4551H47.2617V19.9551H47.7617V19.4551ZM52.0977 19.4551V19.9551H52.5977V19.4551H52.0977ZM52.0977 0.412109V-0.0878906H51.5977V0.412109H52.0977ZM55.4375 0.412109H55.9375V-0.0878906H55.4375V0.412109ZM55.4375 22.5605V23.0605H55.9375V22.5605H55.4375ZM36.6875 22.5605H36.1875V23.0605H36.6875V22.5605ZM36.6875 0.412109V-0.0878906H36.1875V0.412109H36.6875ZM39.998 0.412109H40.498V-0.0878906H39.998V0.412109ZM39.998 19.4551H39.498V19.9551H39.998V19.4551ZM44.9512 19.4551V0.412109H43.9512V19.4551H44.9512ZM44.4512 0.912109H47.7617V-0.0878906H44.4512V0.912109ZM47.2617 0.412109V19.4551H48.2617V0.412109H47.2617ZM47.7617 19.9551H52.0977V18.9551H47.7617V19.9551ZM52.5977 19.4551V0.412109H51.5977V19.4551H52.5977ZM52.0977 0.912109H55.4375V-0.0878906H52.0977V0.912109ZM54.9375 0.412109V22.5605H55.9375V0.412109H54.9375ZM55.4375 22.0605H36.6875V23.0605H55.4375V22.0605ZM37.1875 22.5605V0.412109H36.1875V22.5605H37.1875ZM36.6875 0.912109H39.998V-0.0878906H36.6875V0.912109ZM39.498 0.412109V19.4551H40.498V0.412109H39.498ZM39.998 19.9551H44.4512V18.9551H39.998V19.9551ZM60.834 0.412109V-0.0878906H60.334V0.412109H60.834ZM72.2012 0.412109H72.7012V-0.0878906H72.2012V0.412109ZM72.2012 3.54688V4.04688H72.7012V3.54688H72.2012ZM64.1152 3.54688V3.04688H63.6152V3.54688H64.1152ZM64.1152 9.34766H63.6152V9.84766H64.1152V9.34766ZM72.1426 11.0176L71.8322 11.4096L71.8356 11.4123L72.1426 11.0176ZM72.9629 20.1875L72.5782 19.8681L72.5776 19.8689L72.9629 20.1875ZM69.7695 22.2969L69.8803 22.7844L69.8976 22.7805L69.9145 22.7754L69.7695 22.2969ZM60.834 22.5605H60.334V23.0605H60.834V22.5605ZM64.1152 12.3945V11.8945H63.6152V12.3945H64.1152ZM64.1152 19.4844H63.6152V19.9844H64.1152V19.4844ZM69.6523 18.752L69.3775 18.3342L69.3724 18.3377L69.6523 18.752ZM70.9121 15.9688L71.4108 16.0044L71.4127 15.979L71.4119 15.9536L70.9121 15.9688ZM69.6523 13.2441L69.3425 13.6366L69.3454 13.6388L69.6523 13.2441ZM60.834 0.912109H72.2012V-0.0878906H60.834V0.912109ZM71.7012 0.412109V3.54688H72.7012V0.412109H71.7012ZM72.2012 3.04688H64.1152V4.04688H72.2012V3.04688ZM63.6152 3.54688V9.34766H64.6152V3.54688H63.6152ZM64.1152 9.84766H66.5469V8.84766H64.1152V9.84766ZM66.5469 9.84766C68.7921 9.84766 70.5375 10.3846 71.8322 11.4096L72.4529 10.6256C70.9352 9.42398 68.9501 8.84766 66.5469 8.84766V9.84766ZM71.8356 11.4123C73.089 12.3871 73.752 13.8913 73.752 16.0273H74.752C74.752 13.6712 74.0087 11.8356 72.4495 10.6229L71.8356 11.4123ZM73.752 16.0273C73.752 17.6836 73.3436 18.9462 72.5782 19.8681L73.3476 20.5069C74.301 19.3585 74.752 17.8476 74.752 16.0273H73.752ZM72.5776 19.8689C71.8018 20.807 70.8217 21.4556 69.6245 21.8184L69.9145 22.7754C71.2955 22.3569 72.4443 21.5993 73.3482 20.5061L72.5776 19.8689ZM69.6587 21.8093C69.2548 21.9011 68.8197 21.9662 68.3527 22.0035L68.4324 23.0004C68.942 22.9596 69.4249 22.888 69.8803 22.7844L69.6587 21.8093ZM68.3527 22.0035C67.873 22.0419 67.467 22.0605 67.1328 22.0605V23.0605C67.5017 23.0605 67.9356 23.0401 68.4324 23.0004L68.3527 22.0035ZM67.1328 22.0605H60.834V23.0605H67.1328V22.0605ZM61.334 22.5605V0.412109H60.334V22.5605H61.334ZM63.6152 12.3945V19.4844H64.6152V12.3945H63.6152ZM64.1152 19.9844H66.8398V18.9844H64.1152V19.9844ZM66.8398 19.9844C68.0604 19.9844 69.1042 19.7258 69.9323 19.1662L69.3724 18.3377C68.7552 18.7547 67.924 18.9844 66.8398 18.9844V19.9844ZM69.9272 19.1697C70.8576 18.5575 71.3082 17.4408 71.4108 16.0044L70.4134 15.9331C70.3207 17.2311 69.9315 17.9698 69.3775 18.3342L69.9272 19.1697ZM71.4119 15.9536C71.3907 15.2536 71.252 14.6286 70.9745 14.0968L70.088 14.5594C70.2793 14.9261 70.3945 15.3948 70.4123 15.9839L71.4119 15.9536ZM70.9745 14.0968C70.7115 13.5928 70.3748 13.1726 69.9593 12.8495L69.3454 13.6388C69.633 13.8625 69.8822 14.1651 70.088 14.5594L70.9745 14.0968ZM69.9622 12.8517C69.539 12.5176 69.061 12.2737 68.5326 12.1196L68.2526 13.0796C68.6617 13.1989 69.0235 13.3848 69.3425 13.6366L69.9622 12.8517ZM68.5326 12.1196C68.0202 11.9702 67.5044 11.8945 66.9863 11.8945V12.8945C67.4058 12.8945 67.8274 12.9556 68.2526 13.0796L68.5326 12.1196ZM66.9863 11.8945H64.1152V12.8945H66.9863V11.8945ZM85.4199 3.51758V3.01758H84.9199V3.51758H85.4199ZM84.3945 21.0078L84.793 21.3101L84.7995 21.3011L84.3945 21.0078ZM82.6367 22.3848L82.4227 21.9329L82.418 21.9351L82.6367 22.3848ZM77.0117 22.4141H76.5117V22.7848L76.8665 22.8925L77.0117 22.4141ZM77.0117 18.957L77.1993 18.4936L76.5117 18.2152V18.957H77.0117ZM78.7695 19.6016L78.6357 20.0834L78.6423 20.0851L78.7695 19.6016ZM79.9707 19.7773L79.948 20.2768L79.9593 20.2773H79.9707V19.7773ZM81.5527 19.0742L81.1526 18.7741L81.1447 18.7852L81.5527 19.0742ZM82.0801 0.412109V-0.0878906H81.5801V0.412109H82.0801ZM94.7656 0.412109H95.2656V-0.0878906H94.7656V0.412109ZM94.7656 22.5605V23.0605H95.2656V22.5605H94.7656ZM91.4258 22.5605H90.9258V23.0605H91.4258V22.5605ZM91.4258 3.51758H91.9258V3.01758H91.4258V3.51758ZM84.9199 3.51758V17.4336H85.9199V3.51758H84.9199ZM84.9199 17.4336C84.9199 17.9598 84.8564 18.5195 84.7264 19.1139L85.7033 19.3276C85.8467 18.6719 85.9199 18.0402 85.9199 17.4336H84.9199ZM84.7264 19.1139C84.6057 19.6656 84.3632 20.1987 83.9896 20.7146L84.7995 21.3011C85.2462 20.6842 85.5506 20.0258 85.7033 19.3276L84.7264 19.1139ZM83.9962 20.7056C83.6221 21.1988 83.1036 21.6104 82.4227 21.9329L82.8508 22.8366C83.6542 22.4561 84.3076 21.9496 84.7929 21.31L83.9962 20.7056ZM82.418 21.9351C81.7865 22.2424 80.9313 22.4121 79.8242 22.4121V23.4121C81.0218 23.4121 82.0417 23.2303 82.8555 22.8344L82.418 21.9351ZM79.8242 22.4121C79.1092 22.4121 78.2233 22.2593 77.157 21.9356L76.8665 22.8925C77.9876 23.2329 78.9767 23.4121 79.8242 23.4121V22.4121ZM77.5117 22.4141V18.957H76.5117V22.4141H77.5117ZM76.8241 19.4205C77.6443 19.7525 78.2538 19.9772 78.6357 20.0833L78.9034 19.1198C78.5821 19.0306 78.0198 18.8256 77.1993 18.4936L76.8241 19.4205ZM78.6423 20.0851C79.0514 20.1928 79.4872 20.2559 79.948 20.2768L79.9934 19.2779C79.5949 19.2597 79.2299 19.2057 78.8968 19.118L78.6423 20.0851ZM79.9707 20.2773C80.8087 20.2773 81.5108 19.9984 81.9607 19.3632L81.1447 18.7852C80.9306 19.0876 80.578 19.2773 79.9707 19.2773V20.2773ZM81.9527 19.3742C82.3999 18.7781 82.5801 17.9254 82.5801 16.9062H81.5801C81.5801 17.8403 81.4087 18.4329 81.1527 18.7742L81.9527 19.3742ZM82.5801 16.9062V0.412109H81.5801V16.9062H82.5801ZM82.0801 0.912109H94.7656V-0.0878906H82.0801V0.912109ZM94.2656 0.412109V22.5605H95.2656V0.412109H94.2656ZM94.7656 22.0605H91.4258V23.0605H94.7656V22.0605ZM91.9258 22.5605V3.51758H90.9258V22.5605H91.9258ZM91.4258 3.01758H85.4199V4.01758H91.4258V3.01758ZM97.2617 22.5605L96.7843 22.4121L96.5827 23.0605H97.2617V22.5605ZM104.146 0.412109V-0.0878906H103.778L103.669 0.263691L104.146 0.412109ZM107.545 0.412109L108.022 0.262541L107.912 -0.0878906H107.545V0.412109ZM114.488 22.5605V23.0605H115.169L114.965 22.411L114.488 22.5605ZM110.943 22.5605L110.466 22.7082L110.575 23.0605H110.943V22.5605ZM108.951 16.1152L109.429 15.9676L109.32 15.6152H108.951V16.1152ZM102.623 16.1152V15.6152H102.259L102.147 15.9617L102.623 16.1152ZM100.543 22.5605V23.0605H100.907L101.019 22.7141L100.543 22.5605ZM105.787 5.53906L106.267 5.39798L105.793 3.78849L105.308 5.39453L105.787 5.53906ZM103.531 13.0098L103.053 12.8652L102.858 13.5098H103.531V13.0098ZM107.984 13.0098V13.5098H108.653L108.464 12.8687L107.984 13.0098ZM97.7392 22.709L104.624 0.560528L103.669 0.263691L96.7843 22.4121L97.7392 22.709ZM104.146 0.912109H107.545V-0.0878906H104.146V0.912109ZM107.068 0.561678L114.011 22.7101L114.965 22.411L108.022 0.262541L107.068 0.561678ZM114.488 22.0605H110.943V23.0605H114.488V22.0605ZM111.421 22.4129L109.429 15.9676L108.473 16.2629L110.466 22.7082L111.421 22.4129ZM108.951 15.6152H102.623V16.6152H108.951V15.6152ZM102.147 15.9617L100.067 22.407L101.019 22.7141L103.099 16.2688L102.147 15.9617ZM100.543 22.0605H97.2617V23.0605H100.543V22.0605ZM105.308 5.39453L103.053 12.8652L104.01 13.1543L106.266 5.6836L105.308 5.39453ZM103.531 13.5098H107.984V12.5098H103.531V13.5098ZM108.464 12.8687L106.267 5.39798L105.307 5.68015L107.505 13.1508L108.464 12.8687ZM117.893 22.5605H117.393V23.0605H117.893V22.5605ZM117.893 0.412109V-0.0878906H117.393V0.412109H117.893ZM121.203 0.412109H121.703V-0.0878906H121.203V0.412109ZM121.203 9.52344H120.703V10.0234H121.203V9.52344ZM128.527 9.52344V10.0234H129.027V9.52344H128.527ZM128.527 0.412109V-0.0878906H128.027V0.412109H128.527ZM131.896 0.412109H132.396V-0.0878906H131.896V0.412109ZM131.896 22.5605V23.0605H132.396V22.5605H131.896ZM128.527 22.5605H128.027V23.0605H128.527V22.5605ZM128.527 12.6289H129.027V12.1289H128.527V12.6289ZM121.203 12.6289V12.1289H120.703V12.6289H121.203ZM121.203 22.5605V23.0605H121.703V22.5605H121.203ZM118.393 22.5605V0.412109H117.393V22.5605H118.393ZM117.893 0.912109H121.203V-0.0878906H117.893V0.912109ZM120.703 0.412109V9.52344H121.703V0.412109H120.703ZM121.203 10.0234H128.527V9.02344H121.203V10.0234ZM129.027 9.52344V0.412109H128.027V9.52344H129.027ZM128.527 0.912109H131.896V-0.0878906H128.527V0.912109ZM131.396 0.412109V22.5605H132.396V0.412109H131.396ZM131.896 22.0605H128.527V23.0605H131.896V22.0605ZM129.027 22.5605V12.6289H128.027V22.5605H129.027ZM128.527 12.1289H121.203V13.1289H128.527V12.1289ZM120.703 12.6289V22.5605H121.703V12.6289H120.703ZM121.203 22.0605H117.893V23.0605H121.203V22.0605ZM136.883 22.5605H136.383V23.0605H136.883V22.5605ZM136.883 0.412109V-0.0878906H136.383V0.412109H136.883ZM140.164 0.412109H140.664V-0.0878906H140.164V0.412109ZM140.164 8.73242H139.664V10.1737L140.557 9.04206L140.164 8.73242ZM146.727 0.412109V-0.0878906H146.484L146.334 0.102467L146.727 0.412109ZM150.682 0.412109L151.073 0.723249L151.718 -0.0878906H150.682V0.412109ZM142.391 10.8418L141.999 10.5307L141.751 10.8433L142.001 11.1547L142.391 10.8418ZM151.795 22.5605V23.0605H152.837L152.185 22.2476L151.795 22.5605ZM147.576 22.5605L147.187 22.8749L147.337 23.0605H147.576V22.5605ZM140.164 13.3906L140.553 13.0763L139.664 11.9767V13.3906H140.164ZM140.164 22.5605V23.0605H140.664V22.5605H140.164ZM137.383 22.5605V0.412109H136.383V22.5605H137.383ZM136.883 0.912109H140.164V-0.0878906H136.883V0.912109ZM139.664 0.412109V8.73242H140.664V0.412109H139.664ZM140.557 9.04206L147.119 0.721752L146.334 0.102467L139.771 8.42278L140.557 9.04206ZM146.727 0.912109H150.682V-0.0878906H146.727V0.912109ZM150.29 0.100969L141.999 10.5307L142.782 11.1529L151.073 0.723249L150.29 0.100969ZM142.001 11.1547L151.405 22.8735L152.185 22.2476L142.781 10.5289L142.001 11.1547ZM151.795 22.0605H147.576V23.0605H151.795V22.0605ZM147.965 22.2462L140.553 13.0763L139.775 13.7049L147.187 22.8749L147.965 22.2462ZM139.664 13.3906V22.5605H140.664V13.3906H139.664ZM140.164 22.0605H136.883V23.0605H140.164V22.0605ZM169.438 0.412109H169.938V-0.0878906H169.438V0.412109ZM169.438 22.5605V23.0605H169.938V22.5605H169.438ZM166.186 22.5605H165.686V23.0605H166.186V22.5605ZM166.186 6.91602H166.686L165.732 6.70471L166.186 6.91602ZM158.891 22.5605V23.0605H159.209L159.344 22.7719L158.891 22.5605ZM155.17 22.5605H154.67V23.0605H155.17V22.5605ZM155.17 0.412109V-0.0878906H154.67V0.412109H155.17ZM158.422 0.412109H158.922V-0.0878906H158.422V0.412109ZM158.422 16.1152H157.922L158.875 16.3259L158.422 16.1152ZM165.717 0.412109V-0.0878906H165.398L165.263 0.201454L165.717 0.412109ZM168.938 0.412109V22.5605H169.938V0.412109H168.938ZM169.438 22.0605H166.186V23.0605H169.438V22.0605ZM166.686 22.5605V6.91602H165.686V22.5605H166.686ZM165.732 6.70471L158.437 22.3492L159.344 22.7719L166.639 7.12732L165.732 6.70471ZM158.891 22.0605H155.17V23.0605H158.891V22.0605ZM155.67 22.5605V0.412109H154.67V22.5605H155.67ZM155.17 0.912109H158.422V-0.0878906H155.17V0.912109ZM157.922 0.412109V16.1152H158.922V0.412109H157.922ZM158.875 16.3259L166.17 0.622765L165.263 0.201454L157.968 15.9046L158.875 16.3259ZM165.717 0.912109H169.438V-0.0878906H165.717V0.912109ZM177.002 5.48047V5.98047H177.433L177.496 5.55464L177.002 5.48047ZM173.838 5.48047H173.338V5.98047H173.838V5.48047ZM174.219 3.3418L173.766 3.13033L173.762 3.13727L174.219 3.3418ZM177.412 0.5L177.217 0.0398159L177.212 0.0416527L177.412 0.5ZM182.598 0.382812L182.443 0.858341L182.447 0.859428L182.598 0.382812ZM184.648 1.49609L184.322 1.87481L184.325 1.87735L184.648 1.49609ZM186.113 3.48828L185.653 3.68385L185.656 3.69088L185.659 3.69781L186.113 3.48828ZM186.318 8.11719L186.788 8.28932L186.79 8.28439L186.318 8.11719ZM185.557 9.69922L185.973 9.97657L185.977 9.97045L185.981 9.96422L185.557 9.69922ZM184.678 10.6074L184.966 11.0159L184.97 11.0128L184.678 10.6074ZM183.975 11.1055L183.684 10.6986L182.803 11.3279L183.853 11.5905L183.975 11.1055ZM185.967 12.3945L185.598 12.7319L185.603 12.7374L185.608 12.7428L185.967 12.3945ZM186.992 16.1738H187.492L187.492 16.1633L186.992 16.1738ZM186.523 18.8398L186.992 19.0142L186.993 19.0107L186.523 18.8398ZM185.234 21.0371L185.588 21.3907L185.6 21.3789L185.611 21.3664L185.234 21.0371ZM183.037 22.4434L183.211 22.912L183.217 22.9098L183.037 22.4434ZM177.412 22.5312L177.251 23.0045L177.261 23.0079L177.412 22.5312ZM175.391 21.3887L175.724 21.0157L175.709 21.0024L175.693 20.9903L175.391 21.3887ZM174.043 19.8652L173.599 20.0946L173.603 20.1032L173.608 20.1117L174.043 19.8652ZM173.398 17.3457V16.8457H172.841L172.901 17.3999L173.398 17.3457ZM177.002 17.3457H177.502V16.8457H177.002V17.3457ZM177.178 18.5176L176.731 18.7412L176.738 18.7556L176.746 18.7695L177.178 18.5176ZM177.764 19.1914L178.089 18.8118L178.087 18.8097L177.764 19.1914ZM178.76 19.7773L178.574 20.2416L178.584 20.2457L178.595 20.2493L178.76 19.7773ZM182.627 18.8984L182.249 18.5713L182.244 18.5773L182.627 18.8984ZM183.242 14.2988L182.781 14.4911L182.786 14.503L182.791 14.5146L183.242 14.2988ZM182.48 13.1855L182.81 12.8093L182.799 12.7997L182.787 12.7909L182.48 13.1855ZM181.279 12.5703L181.128 13.0468L181.134 13.0486L181.279 12.5703ZM180.049 12.3066L180.099 11.8091L180.074 11.8066H180.049V12.3066ZM177.529 12.3066H177.029V12.8066H177.529V12.3066ZM177.529 9.43555V8.93555H177.029V9.43555H177.529ZM180.049 9.43555V9.93555H180.062L180.076 9.93483L180.049 9.43555ZM182.51 8.52734L182.162 8.16759L182.156 8.17379L182.51 8.52734ZM182.51 3.78125L182.15 4.12855L182.156 4.13486L182.162 4.14095L182.51 3.78125ZM178.057 3.63477L178.361 4.03165L178.369 4.0252L178.057 3.63477ZM177.002 4.98047H173.838V5.98047H177.002V4.98047ZM174.338 5.48047C174.338 4.6662 174.459 4.02869 174.675 3.54633L173.762 3.13727C173.471 3.78772 173.338 4.57599 173.338 5.48047H174.338ZM174.672 3.55324C174.913 3.03643 175.279 2.5526 175.782 2.10344L175.116 1.3575C174.526 1.8849 174.071 2.47529 173.766 3.13035L174.672 3.55324ZM175.782 2.10344C176.285 1.65487 176.892 1.27196 177.612 0.958347L177.212 0.0416527C176.408 0.392105 175.708 0.829504 175.116 1.3575L175.782 2.10344ZM177.608 0.960165C178.312 0.66082 179.18 0.501953 180.225 0.501953V-0.498047C179.082 -0.498047 178.075 -0.324883 177.217 0.039835L177.608 0.960165ZM180.225 0.501953C180.972 0.501953 181.71 0.62022 182.443 0.85833L182.752 -0.0927048C181.922 -0.362408 181.079 -0.498047 180.225 -0.498047V0.501953ZM182.447 0.859428C183.191 1.09541 183.813 1.43582 184.322 1.8748L184.975 1.11739C184.351 0.579809 183.606 0.178024 182.749 -0.0938034L182.447 0.859428ZM184.325 1.87735C184.91 2.3736 185.351 2.97398 185.653 3.68385L186.573 3.29271C186.211 2.44008 185.676 1.71234 184.972 1.11484L184.325 1.87735ZM185.659 3.69781C185.977 4.38518 186.141 5.17155 186.141 6.06641H187.141C187.141 5.0472 186.953 4.11482 186.567 3.27875L185.659 3.69781ZM186.141 6.06641C186.141 6.78147 186.04 7.40713 185.847 7.94998L186.79 8.28439C187.027 7.61631 187.141 6.87478 187.141 6.06641H186.141ZM185.849 7.94506C185.644 8.50264 185.405 8.99825 185.133 9.43422L185.981 9.96422C186.294 9.46269 186.563 8.90361 186.788 8.28931L185.849 7.94506ZM185.141 9.42187C184.94 9.72243 184.689 9.9822 184.385 10.2021L184.97 11.0128C185.369 10.7248 185.704 10.3791 185.973 9.97657L185.141 9.42187ZM184.389 10.1989C184.057 10.4333 183.822 10.6 183.684 10.6986L184.265 11.5123C184.401 11.4156 184.634 11.2503 184.966 11.0159L184.389 10.1989ZM183.853 11.5905C184.438 11.7367 185.021 12.1008 185.598 12.7319L186.336 12.0571C185.663 11.3211 184.918 10.8258 184.096 10.6204L183.853 11.5905ZM185.608 12.7428C186.11 13.2603 186.454 14.3463 186.492 16.1844L187.492 16.1633C187.453 14.2905 187.112 12.8569 186.326 12.0463L185.608 12.7428ZM186.492 16.1738C186.492 17.0338 186.346 17.8646 186.054 18.669L186.993 19.0107C187.326 18.0964 187.492 17.1498 187.492 16.1738H186.492ZM186.055 18.6655C185.762 19.453 185.362 20.132 184.858 20.7079L185.611 21.3664C186.201 20.6923 186.66 19.9063 186.992 19.0142L186.055 18.6655ZM184.881 20.6836C184.328 21.2361 183.656 21.6681 182.857 21.977L183.217 22.9098C184.137 22.5545 184.93 22.0491 185.588 21.3907L184.881 20.6836ZM182.863 21.9747C182.087 22.2635 181.209 22.4121 180.225 22.4121V23.4121C181.31 23.4121 182.308 23.2482 183.211 22.912L182.863 21.9747ZM180.225 22.4121C179.188 22.4121 178.304 22.2894 177.563 22.0546L177.261 23.0079C178.122 23.2809 179.113 23.4121 180.225 23.4121V22.4121ZM177.574 22.0581C176.827 21.8029 176.214 21.4531 175.724 21.0157L175.058 21.7616C175.661 22.3008 176.396 22.7127 177.251 23.0044L177.574 22.0581ZM175.693 20.9903C175.177 20.5994 174.775 20.1423 174.478 19.6187L173.608 20.1117C173.975 20.76 174.471 21.3186 175.088 21.787L175.693 20.9903ZM174.487 19.6359C174.215 19.1076 174.009 18.3362 173.895 17.2915L172.901 17.3999C173.022 18.5037 173.246 19.412 173.599 20.0946L174.487 19.6359ZM173.398 17.8457H177.002V16.8457H173.398V17.8457ZM176.502 17.3457C176.502 17.9035 176.558 18.3955 176.731 18.7412L177.625 18.294C177.563 18.1709 177.502 17.8817 177.502 17.3457H176.502ZM176.746 18.7695C176.917 19.0627 177.153 19.3295 177.441 19.5731L178.087 18.8097C177.867 18.6236 177.712 18.4412 177.61 18.2656L176.746 18.7695ZM177.438 19.571C177.76 19.8465 178.141 20.0683 178.574 20.2416L178.945 19.3131C178.597 19.1739 178.315 19.0051 178.089 18.8118L177.438 19.571ZM178.595 20.2493C179.049 20.4082 179.556 20.4824 180.107 20.4824V19.4824C179.644 19.4824 179.252 19.4199 178.925 19.3054L178.595 20.2493ZM180.107 20.4824C181.306 20.4824 182.296 20.0722 183.01 19.2195L182.244 18.5773C181.747 19.17 181.057 19.4824 180.107 19.4824V20.4824ZM183.005 19.2255C183.727 18.3912 184.064 17.3082 184.064 16.0273H183.064C183.064 17.1293 182.777 17.9604 182.249 18.5714L183.005 19.2255ZM184.064 16.0273C184.064 15.2783 183.951 14.6215 183.693 14.0831L182.791 14.5146C182.963 14.8746 183.064 15.3702 183.064 16.0273H184.064ZM183.704 14.1065C183.485 13.5826 183.191 13.1431 182.81 12.8093L182.151 13.5618C182.395 13.7749 182.608 14.0776 182.781 14.4911L183.704 14.1065ZM182.787 12.7909C182.385 12.4779 181.929 12.2455 181.425 12.092L181.134 13.0486C181.528 13.1686 181.873 13.3463 182.173 13.5802L182.787 12.7909ZM181.431 12.0938C180.973 11.9481 180.528 11.8521 180.099 11.8091L179.999 12.8042C180.35 12.8393 180.726 12.9191 181.128 13.0468L181.431 12.0938ZM180.049 11.8066H177.529V12.8066H180.049V11.8066ZM178.029 12.3066V9.43555H177.029V12.3066H178.029ZM177.529 9.93555H180.049V8.93555H177.529V9.93555ZM180.076 9.93483C181.242 9.87237 182.199 9.54539 182.863 8.8809L182.156 8.17379C181.727 8.60304 181.044 8.88154 180.022 8.93626L180.076 9.93483ZM182.857 8.88704C183.552 8.21563 183.859 7.25465 183.859 6.0957H182.859C182.859 7.08519 182.6 7.7453 182.162 8.16764L182.857 8.88704ZM183.859 6.0957C183.859 5.00201 183.545 4.08615 182.857 3.42155L182.162 4.14095C182.607 4.5701 182.859 5.19721 182.859 6.0957H183.859ZM182.869 3.43395C182.215 2.75587 181.355 2.43164 180.342 2.43164V3.43164C181.126 3.43164 181.711 3.67382 182.15 4.12855L182.869 3.43395ZM180.342 2.43164C179.32 2.43164 178.439 2.68846 177.744 3.24433L178.369 4.0252C178.846 3.64358 179.489 3.43164 180.342 3.43164V2.43164ZM177.752 3.23796C177.056 3.77189 176.642 4.50679 176.507 5.4063L177.496 5.55464C177.596 4.89165 177.885 4.39608 178.361 4.03157L177.752 3.23796ZM189.605 25.4609H189.105V25.9609H189.605V25.4609ZM189.605 19.4551V18.9551H189.105V19.4551H189.605ZM191.686 19.4551V19.9551H192.07L192.169 19.5832L191.686 19.4551ZM193.648 0.412109V-0.0878906H193.148V0.412109H193.648ZM205.279 0.412109H205.779V-0.0878906H205.279V0.412109ZM205.279 19.4551H204.779V19.9551H205.279V19.4551ZM207.418 19.4551H207.918V18.9551H207.418V19.4551ZM207.418 25.4609V25.9609H207.918V25.4609H207.418ZM204.078 25.4609H203.578V25.9609H204.078V25.4609ZM204.078 22.5605H204.578V22.0605H204.078V22.5605ZM192.945 22.5605V22.0605H192.445V22.5605H192.945ZM192.945 25.4609V25.9609H193.445V25.4609H192.945ZM195.084 19.4551L194.598 19.337L194.448 19.9551H195.084V19.4551ZM201.939 19.4551V19.9551H202.439V19.4551H201.939ZM201.939 3.51758H202.439V3.01758H201.939V3.51758ZM196.959 3.51758V3.01758H196.466L196.459 3.51096L196.959 3.51758ZM190.105 25.4609V19.4551H189.105V25.4609H190.105ZM189.605 19.9551H191.686V18.9551H189.605V19.9551ZM192.169 19.5832C192.861 16.9746 193.363 14.0666 193.677 10.8613L192.682 10.7637C192.372 13.9256 191.878 16.7793 191.202 19.3269L192.169 19.5832ZM193.677 10.8613C193.992 7.65904 194.148 4.17573 194.148 0.412109H193.148C193.148 4.14849 192.993 7.59877 192.682 10.7637L193.677 10.8613ZM193.648 0.912109H205.279V-0.0878906H193.648V0.912109ZM204.779 0.412109V19.4551H205.779V0.412109H204.779ZM205.279 19.9551H207.418V18.9551H205.279V19.9551ZM206.918 19.4551V25.4609H207.918V19.4551H206.918ZM207.418 24.9609H204.078V25.9609H207.418V24.9609ZM204.578 25.4609V22.5605H203.578V25.4609H204.578ZM204.078 22.0605H192.945V23.0605H204.078V22.0605ZM192.445 22.5605V25.4609H193.445V22.5605H192.445ZM192.945 24.9609H189.605V25.9609H192.945V24.9609ZM195.084 19.9551H201.939V18.9551H195.084V19.9551ZM202.439 19.4551V3.51758H201.439V19.4551H202.439ZM201.939 3.01758H196.959V4.01758H201.939V3.01758ZM196.459 3.51096C196.42 6.44239 196.226 9.29482 195.877 12.0684L196.869 12.1933C197.223 9.38096 197.42 6.4912 197.459 3.5242L196.459 3.51096ZM195.877 12.0684C195.527 14.848 195.1 17.2701 194.598 19.337L195.57 19.5731C196.083 17.4604 196.516 14.9996 196.869 12.1933L195.877 12.0684ZM209.064 22.5605L208.587 22.4121L208.385 23.0605H209.064V22.5605ZM215.949 0.412109V-0.0878906H215.581L215.472 0.263691L215.949 0.412109ZM219.348 0.412109L219.825 0.262541L219.715 -0.0878906H219.348V0.412109ZM226.291 22.5605V23.0605H226.972L226.768 22.411L226.291 22.5605ZM222.746 22.5605L222.268 22.7082L222.377 23.0605H222.746V22.5605ZM220.754 16.1152L221.232 15.9676L221.123 15.6152H220.754V16.1152ZM214.426 16.1152V15.6152H214.062L213.95 15.9617L214.426 16.1152ZM212.346 22.5605V23.0605H212.71L212.822 22.7141L212.346 22.5605ZM217.59 5.53906L218.07 5.39798L217.596 3.78849L217.111 5.39453L217.59 5.53906ZM215.334 13.0098L214.855 12.8652L214.661 13.5098H215.334V13.0098ZM219.787 13.0098V13.5098H220.455L220.267 12.8687L219.787 13.0098ZM209.542 22.709L216.427 0.560528L215.472 0.263691L208.587 22.4121L209.542 22.709ZM215.949 0.912109H219.348V-0.0878906H215.949V0.912109ZM218.871 0.561678L225.814 22.7101L226.768 22.411L219.825 0.262541L218.871 0.561678ZM226.291 22.0605H222.746V23.0605H226.291V22.0605ZM223.224 22.4129L221.232 15.9676L220.276 16.2629L222.268 22.7082L223.224 22.4129ZM220.754 15.6152H214.426V16.6152H220.754V15.6152ZM213.95 15.9617L211.87 22.407L212.822 22.7141L214.902 16.2688L213.95 15.9617ZM212.346 22.0605H209.064V23.0605H212.346V22.0605ZM217.111 5.39453L214.855 12.8652L215.813 13.1543L218.068 5.6836L217.111 5.39453ZM215.334 13.5098H219.787V12.5098H215.334V13.5098ZM220.267 12.8687L218.07 5.39798L217.11 5.68015L219.307 13.1508L220.267 12.8687ZM233.24 22.5605H232.74V23.0605H233.24V22.5605ZM233.24 3.54688H233.74V3.04688H233.24V3.54688ZM227.908 3.54688H227.408V4.04688H227.908V3.54688ZM227.908 0.412109V-0.0878906H227.408V0.412109H227.908ZM241.883 0.412109H242.383V-0.0878906H241.883V0.412109ZM241.883 3.54688V4.04688H242.383V3.54688H241.883ZM236.551 3.54688V3.04688H236.051V3.54688H236.551ZM236.551 22.5605V23.0605H237.051V22.5605H236.551ZM233.74 22.5605V3.54688H232.74V22.5605H233.74ZM233.24 3.04688H227.908V4.04688H233.24V3.04688ZM228.408 3.54688V0.412109H227.408V3.54688H228.408ZM227.908 0.912109H241.883V-0.0878906H227.908V0.912109ZM241.383 0.412109V3.54688H242.383V0.412109H241.383ZM241.883 3.04688H236.551V4.04688H241.883V3.04688ZM236.051 3.54688V22.5605H237.051V3.54688H236.051ZM236.551 22.0605H233.24V23.0605H236.551V22.0605Z" fill="white"/>
</svg>
