<svg width="125" height="124" viewBox="0 0 125 124" fill="none" xmlns="http://www.w3.org/2000/svg">
<path d="M110.757 36.2458L48.2568 98.2458C48.0754 98.4259 47.86 98.5688 47.6229 98.6663C47.3858 98.7638 47.1317 98.814 46.875 98.814C46.6183 98.814 46.3642 98.7638 46.1271 98.6663C45.89 98.5688 45.6745 98.4259 45.4932 98.2458L18.1494 71.1208C17.7829 70.7572 17.577 70.2642 17.577 69.75C17.577 69.2359 17.7829 68.7428 18.1494 68.3792C18.5159 68.0157 19.0129 67.8114 19.5312 67.8114C20.0495 67.8114 20.5466 68.0157 20.9131 68.3792L46.875 94.1334L107.993 33.5042C108.36 33.1407 108.857 32.9364 109.375 32.9364C109.893 32.9364 110.39 33.1407 110.757 33.5042C111.123 33.8678 111.329 34.3609 111.329 34.875C111.329 35.3892 111.123 35.8822 110.757 36.2458Z" fill="#517298"/>
</svg>
